<?xml version="1.0" encoding="utf-8"?>
<!-- Generator: Adobe Illustrator 27.5.0, SVG Export Plug-In . SVG Version: 6.00 Build 0)  -->
<svg version="1.1" id="Слой_1" xmlns="http://www.w3.org/2000/svg" xmlns:xlink="http://www.w3.org/1999/xlink" x="0px" y="0px"
	 viewBox="0 0 3500 2000" style="enable-background:new 0 0 3500 2000;" xml:space="preserve">
<rect style="fill:#FFFFFF;" width="3500" height="2000"/>
<g>
	<path style="fill:#9CD499;" d="M452.729,1664.491c0,0-413.414-551.372-281.44-545.071s298.154,329.818,298.154,329.818
		S213.281,921.774,261.271,885.775s305.309,530.413,305.309,530.413s780.157-283.021,883.23-440.284
		c149.193-227.629,153.522-521.134,261.941-548.671c108.418-27.538,172.791-201.075,189.198-137.801
		c16.407,63.274-66.457,198.286-24.411,263.94c42.046,65.654-79.013,266.296-133.426,345.132
		c-78.121,113.185-80.705,401.529-49.45,408.335c31.255,6.808,160.356-429.521,188.818-566.267
		c28.462-136.747,179.593-122.18,242-222.445c62.407-100.265,97.55-274.072,124.97-199.166
		c27.419,74.906-4.541,207.52,23.437,279.186c27.978,71.665-138.265,587.902-118.131,650.719s88.969-236.783,219.004-255.861
		c130.035-19.078-62.692,535.592-62.692,535.592s332.846-636.099,470.817-648.968c137.973-12.869,183.609-144.834,241.774-156.836
		c58.166-12.002,73.809,70.497,0,167.22c-73.808,96.723-32.678,218.825-116.473,373.64
		c-83.793,154.814-96.424,421.999-96.424,421.999s325.285-304.867,396.596-276.431s-156.833,247.082-156.833,247.082
		s229.008-125.26,282.564-93.968c53.558,31.291-184.7,183.412-184.7,183.412H522.261L452.729,1664.491z"/>
	<g>
		<path style="fill:#9CD499;" d="M1487.919,1136.716c-89.438-211.634-98.245-292.502-30.745-496.601s2.994-541.489,65.519-452.265
			c62.525,89.224,112.147,337.254,11.659,485.419c-100.488,148.166-105.641,205.619-102.317,256.058
			c3.325,50.438,62.486,194.538,62.486,194.538L1487.919,1136.716z"/>
		<path style="fill:#74B570;" d="M1436.049,999.048c-0.254-0.832-0.499-1.657-0.749-2.487
			c-1.678-18.626-9.672-114.561-0.186-155.235c10.531-45.151,80.763-135.331,85.04-229.813
			c4.277-94.482,27.162-172.08,39.726-233.967c16.589-81.71-23.59-176.444-58.178-202.411c0.566-0.59,1.168-1.037,1.802-1.368
			l10.338,3.471c2.625,2.414,5.56,5.915,8.852,10.611c62.525,89.224,112.148,337.253,11.659,485.419
			s-105.642,205.619-102.317,256.058c0.897,13.606,5.86,34.03,12.625,56.6L1436.049,999.048z"/>
	</g>
	<g>
		<g>
			<path style="fill:#9CD499;" d="M2818.635,1512.911c-0.51-5.081,91.376-265.76,209.917-255.583
				c118.54,10.177,139.28,42.993,220.882,48.151c58.216,3.68,105.275-4.401,105.275-4.401s-46.953,69.195-156.469,77.277
				c-77.432,5.714-163.773-51.827-221.037-54.808c-57.263-2.98-112.255,108.766-112.255,108.766l-23.304,59.302L2818.635,1512.911z"
				/>
			<g>
				<path style="fill:#74B570;" d="M2844.622,1437.354c-0.49,0-0.986-0.121-1.446-0.374c-1.45-0.801-1.978-2.625-1.178-4.076
					c53.589-97.133,101.868-149.968,151.939-166.276c44.768-14.58,83.933,1.825,125.395,19.192
					c10.149,4.251,20.645,8.647,31.143,12.506c91.304,33.554,141.961,20.983,142.46,20.854c1.61-0.419,3.242,0.541,3.661,2.144
					c0.419,1.604-0.541,3.242-2.144,3.661c-2.12,0.555-52.991,13.171-146.048-21.027c-10.623-3.903-21.181-8.326-31.39-12.603
					c-40.405-16.925-78.571-32.913-121.22-19.021c-48.534,15.808-95.735,67.751-148.543,163.47
					C2846.705,1436.793,2845.68,1437.354,2844.622,1437.354z"/>
			</g>
		</g>
		<g>
			<path style="fill:#9CD499;" d="M2817.867,1516.304c50.256-294.828,154.815-438.748,324.589-533.533
				c169.772-94.785,183.396-126.502,183.396-126.502s-76.418,241.09-177.219,308.119
				c-100.801,67.027-234.565,103.621-261.663,143.938c-27.099,40.315-53.537,189.92-53.537,189.92l-16.959,24.366L2817.867,1516.304
				z"/>
			<g>
				<path style="fill:#74B570;" d="M2820.126,1501.611c-0.125,0-0.252-0.008-0.379-0.023c-1.644-0.207-2.809-1.708-2.602-3.352
					c0.061-0.481,6.292-48.865,26.229-112.168c18.413-58.467,52.63-142.047,111.072-208.196
					c57.739-65.353,112.357-98.554,165.178-130.661c49.203-29.91,95.679-58.161,137.618-109.908c1.042-1.287,2.931-1.486,4.22-0.442
					c1.287,1.044,1.485,2.933,0.442,4.22c-42.596,52.557-89.503,81.07-139.164,111.258
					c-52.438,31.875-106.661,64.836-163.798,129.507c-57.715,65.327-91.569,148.028-109.807,205.903
					c-19.794,62.813-25.978,110.762-26.037,111.238C2822.907,1500.503,2821.615,1501.611,2820.126,1501.611z"/>
			</g>
			<g>
				<path style="fill:#74B570;" d="M3060.532,1090.869c-1.127,0.001-2.207-0.637-2.718-1.724c-0.704-1.5-0.061-3.286,1.438-3.991
					c0.652-0.307,66.187-30.645,147.308-28.398c1.656,0.046,2.962,1.427,2.916,3.082c-0.047,1.656-1.425,2.941-3.082,2.916
					c-79.665-2.243-143.949,27.529-144.589,27.83C3061.394,1090.778,3060.959,1090.869,3060.532,1090.869z"/>
			</g>
			<g>
				<path style="fill:#74B570;" d="M2943.401,1198.112c-0.734,0-1.471-0.269-2.05-0.811c-1.209-1.133-1.271-3.031-0.139-4.24
					c56.361-60.171,108.303-66.994,220.417-76.692c1.641-0.128,3.104,1.08,3.248,2.73c0.143,1.651-1.08,3.104-2.73,3.248
					c-110.526,9.56-161.702,16.255-216.556,74.815C2945.001,1197.794,2944.202,1198.112,2943.401,1198.112z"/>
			</g>
		</g>
	</g>
	<path style="fill:#74B570;" d="M368.677,1707.542c0,0-267.026-180.64-171.017-208.931
		c96.01-28.292,280.281,127.724,280.281,127.724H1363.8c0,0,77.874-445.404,138.436-431.223s-26.447,428.223-26.447,428.223
		s82.178-197.332,120.597-172.174c38.419,25.159,39.066,213.33,39.066,213.33s47.953-238.488,107.661-213.33
		c59.708,25.159,373.734,213.935,373.734,213.935s180.093-448.664,209.062-416.229s-52.039,407.438-52.039,407.438
		s291.396-465.897,329.505-437.402s-114.203,428.535-114.203,428.535s132.532-99.109,171.637-57.104
		c39.104,42.004,40.283,98.024,40.283,98.024s66.909-350.722,115.384-303.382c48.475,47.339,51.454,322.567,51.454,322.567
		s126.012-156.214,153.015-138.212c27.003,18.001,0,176.418,0,176.418L368.677,1707.542z"/>
	<path style="fill:#9BD6E8;" d="M3244.024,1745.748c-239.729-110.813-818.728-88.377-1105.899-81.257s-571.281,53.729-846.087,6.028
		c-274.806-47.699-1030.767-6.971-1024.768,48.05c5.999,55.021,784.641,138.886,1076.184,96.954
		c291.543-41.933,761.643-77.925,1105.478-35.934C2792.766,1821.582,3437.524,1835.192,3244.024,1745.748z"/>
	<g>
		<polygon style="fill:#F37168;" points="2235.246,1725.514 1715.314,1725.514 1715.314,1020.841 1854.404,954.236 
			2087.309,954.236 2235.246,1020.841 		"/>
		<polygon style="fill:#D54A41;" points="1854.404,954.236 1715.314,1020.841 2235.246,1020.841 2087.309,954.236 		"/>
		<polygon style="fill:#F37168;" points="2116.846,996.05 1830.626,996.05 1882.063,969.192 2065.41,969.192 		"/>
		<g>
			<path style="fill:#993341;" d="M2072.985,985.621h-196.447c-1.657,0-3-1.343-3-3c0-1.657,1.343-3,3-3h196.447
				c1.657,0,3,1.343,3,3C2075.985,984.278,2074.643,985.621,2072.985,985.621z"/>
		</g>
		<path style="fill:#D54A41;" d="M2096.99,1237.152h-248.568c-10.92,0-19.855-8.936-19.855-19.855v-66.789
			c0-10.921,8.936-19.855,19.855-19.855h248.568c10.92,0,19.855,8.935,19.855,19.855v66.789
			C2116.846,1228.217,2107.91,1237.152,2096.99,1237.152z"/>
	</g>
	<g>
		<path style="fill:#58556E;" d="M2601.054,606.679c7.198-27.121,26.917-92.555-4.455-106.896
			c-31.372-14.342-47.058-35.406-78.43-24.649c-31.372,10.756-25.098,35.405-36.303,48.851
			c-11.204,13.445,7.619,57.366,25.546,73.052C2525.34,612.722,2601.054,606.679,2601.054,606.679z"/>
		<path style="fill:#F09959;" d="M2200.206,814.984c0,0-43.267-13.974-58.089-21.542c-14.823-7.568-105.965,39.645-83.249,45.738
			c22.716,6.093,68.486-12.109,68.486-12.109l-22.039,10.56c0,0,19.767,6.751,27.628,4.963c7.861-1.788,29.456-6.954,29.456-6.954
			l58.599,23.307c0,0-2.438-34.557-3.5-35.141C2216.435,823.223,2200.206,814.984,2200.206,814.984z"/>
		<polygon style="fill:#F2E5DE;" points="2211.544,810.536 2185.134,809.39 2173.793,860.606 2218.185,868.971 		"/>
		<path style="fill:#58556E;" d="M2631.189,710.861c41.47,58.273,16.208,102.824-35.512,140.609
			c-51.72,37.786-173.471,49.576-224.951,51.853c-51.48,2.276-180.19-37.233-180.19-37.233l7.945-56.699
			c0,0,121.877,11.637,169.067,3.542c47.19-8.095,214.512-102.071,214.512-102.071H2631.189z"/>
		<path style="fill:#3A384D;" d="M2534.494,736.831c-14.777,7.903-31.836,16.878-49.433,25.832
			c-17.089,44.467-21.89,90.068-104.802,120.32c-19.243,7.021-37.502,11.913-54.353,15.25c17.325,3.522,33.082,5.608,44.819,5.089
			c37.316-1.65,121.194,3.127,178.919-14.798C2547.91,844.146,2535.956,773.979,2534.494,736.831z"/>
		<polygon style="fill:#F09959;" points="2583.015,551.205 2614.477,653.398 2549.646,733.165 2568.714,664.658 2549.646,594.581 		
			"/>
		<path style="fill:#E38540;" d="M2583.015,551.205l-33.369,43.377l18.959,69.675c11.783-20.353,21.6-44.85,27.073-71.918
			L2583.015,551.205z"/>
		<path style="fill:#F09959;" d="M2584.091,592.469c-10.841,33.738-39.98,54.549-65.087,46.483
			c-25.105-8.066-36.671-41.956-25.83-75.694c10.84-33.739,39.98-54.55,65.086-46.483
			C2583.366,524.841,2594.931,558.731,2584.091,592.469z"/>
		<path style="fill:#F37168;" d="M2553.142,694.848c0,0-19.17,11.441-19.119,20.339c0.052,8.898,0,13.983,0,13.983
			s-16.474,25.224-29.187,57.739c-12.711,32.515-12.049,49.04-12.049,49.04l80.596-122.646L2553.142,694.848z"/>
		<path style="fill:#3A384D;" d="M2666.576,1661.853c-0.635,25.424-28.675,43.378-41.979,50.132
			c-41.715,21.179-48.94,34.413-3.178,33.738c34.617-0.51,58.475-14.035,95.975-16.577c23.78-1.612,6.647-28.032,7.919-43.286
			c1.271-15.255-9.534-36.719-9.534-36.719L2666.576,1661.853z"/>
		<path style="fill:#3A384D;" d="M2466.365,1649.141c0,0-8.422,11.596-28.761,29.144s-92.031,18.131-53.866,36.136
			c23.187,10.938,65.873,3.012,91.396,6.684c25.522,3.673,47.769,0.12,49.676-6.684c1.906-6.805-5.228-53.286-5.228-53.286
			L2466.365,1649.141z"/>
		<path style="fill:#58556E;" d="M2503.794,973.928c10.011,120.397-23.843,392.099-24.076,453.589
			c-0.233,61.491-34.982,240.329-34.982,240.329s67.081,27.225,82.812,28.561c15.729,1.336,49.062-155.988,55.785-237.499
			c6.725-81.51,44.49-248.973,44.49-248.973l-14.562-248.171L2503.794,973.928z"/>
		<path style="fill:#3A384D;" d="M2574.317,1528.598c4.158-25.469,7.377-49.83,9.015-69.69c6.725-81.51,44.49-248.973,44.49-248.973
			l-4.858-82.796l-120.569-1.715c-2.509,44.306-6.157,90.705-9.798,133.849C2538.91,1360.239,2563.084,1466.618,2574.317,1528.598z"
			/>
		<path style="fill:#58556E;" d="M2508.084,1014.244c46.633,252.669,80.97,353.143,112.431,461.823
			c31.46,108.682,24.292,220.339,24.292,220.339l87.231,11.136c0,0,34.102-197.79,0.558-297.186
			c-20.578-60.976-6.96-143.587-14.565-234.176c-8.58-102.191-16.022-206.664-16.022-206.664L2508.084,1014.244z"/>
		<path style="fill:#3A384D;" d="M2689.428,1102.452l-150.748,65.108c0.678,3.115-0.672,18.482,0,21.537
			c73.842,6.154,120.558-0.841,181.04,13.787c-1.387-17.728-4.206-59.502-5.383-77.461L2689.428,1102.452z"/>
		<path style="fill:#58556E;" d="M2625.469,662.712c62.921,59.523,85.808,122.44,83.688,157.01
			c-4.29,69.987,9.029,339.115,9.029,339.115s-36.966,8.417-98.903,19.737s-121.694-5.236-121.694-5.236
			s-10.479-192.271-9.992-313.018C2487.893,786.708,2625.469,662.712,2625.469,662.712z"/>
		<path style="fill:#3A384D;" d="M2687.078,1165.44c1.628-31.825,13.02-255.844,11.248-259.386
			c-1.906-3.814-74.363-172.889-74.363-172.889c-38.771,52.762-41.219,162.719-40.631,221.83
			c0.529,53.257,16.568,197.832,19.739,225.942c5.362-0.594,10.778-1.368,16.212-2.361
			C2646.58,1173.586,2669.725,1169.005,2687.078,1165.44z"/>
		<polygon style="fill:#F2E5DE;" points="2620.515,646.543 2608.438,623.026 2549.646,670.696 2546.15,735.995 		"/>
		<path style="fill:#3A384D;" d="M2610.345,699.297c0,0,23.981-11,46.067-3.352c-9.07-11.105-17.395-22.138-30.943-34.955
			c0,0-137.576,123.995-137.872,197.609c-0.073,17.991,0.368,36.223,1.167,54.228c0.455-36.881-4.875-63.531,31.327-111.672
			c32.087-42.669,100.423-77.707,100.423-77.707L2610.345,699.297z"/>
		<path style="fill:#58556E;" d="M2621.15,640.688l17.295,33.054l-42.768,30.64l11.489,19.068c0,0-51.553,32.788-73.145,49.576
			c-36.177,28.13-48.89,94.703-48.89,94.703s5.085-66.573,48.89-121.78C2574.083,695.461,2621.15,640.688,2621.15,640.688z"/>
		<polygon style="fill:#BDCCD4;" points="2561.964,1162.252 2745.362,1184.498 2732.938,1305.896 2558.512,1288.021 		"/>
		<path style="fill:#F09959;" d="M2666.921,1083.715l-18.433,67.597l-27.966,18.878l22.647,3.654c0,0-4.103,40.192-11.786,58.461
			c-7.683,18.27,0.579,24.359,31.724,3.045c31.144-21.313,39.779-31.666,37.687-56.635c-2.094-24.968-7.813-28.006-4.636-48.715
			c3.178-20.708-29.873-50.548-29.873-50.548L2666.921,1083.715z"/>
		<polygon style="fill:#F2E5DE;" points="2647.244,1117.797 2640.889,1152.509 2701.169,1162.252 2711.152,1117.797 		"/>
		<path style="fill:#58556E;" d="M2663.846,710.861c22.726,9.337,51.642,92.178,93.933,239.753
			c10.22,35.665-46.626,197.038-46.626,197.038s-72.622-4.631-73.525-16.28c-0.517-6.677,31.938-134.754,27.648-147.085
			c-4.289-12.331-29.332-49.95-50.799-133.935C2593.009,766.367,2622.445,693.851,2663.846,710.861z"/>
		<path style="fill:#58556E;" d="M2494.968,512.331c-22.513,56.47,26.383,50.644,46.954,33.165
			c20.571-17.479,23.232-2.373,22.815,18.375c-0.392,19.475,7.389,5.237,5.596,27.198c-1.793,21.961-3.208,22.998,4.005,15.379
			c7.212-7.619,9.459-35.406,9.459-35.406s-1.685,35.971,8.594,38.426c10.277,2.455,8.663-2.79,8.663-2.79l2.319-60.286
			l-45.317-50.644c0,0-58.133,0.448-58.197,2.241C2499.793,499.783,2494.968,512.331,2494.968,512.331z"/>
		<path style="fill:#F09959;" d="M2583.797,571.042c6.976-15.238,22.35-8.061,18.248,9.863
			c-4.102,17.924-20.958,19.543-20.958,19.543L2583.797,571.042z"/>
		<g>
			<path style="fill:#DBE5EB;" d="M2154.755,875.331c-0.089-19.35-67.299-97.137-73.601-100.367
				c-6.303-3.23-111.568,65.531-145.04,97.603c-33.473,32.072-38.479,37.228-38.479,37.228s33.23,40.984,60.257,72.827l86.46,1.947
				c18.767-21.941,40.044-45.768,53.691-57.778C2127.182,901.146,2154.755,875.331,2154.755,875.331z"/>
			<g>
				<path style="fill:#3E6BAB;" d="M2003.914,975.042c-0.69,0-1.378-0.284-1.872-0.843l-45.119-50.94
					c-0.916-1.033-0.82-2.613,0.214-3.528c1.033-0.916,2.612-0.821,3.528,0.214l45.119,50.941c0.916,1.033,0.82,2.613-0.214,3.528
					C2005.095,974.835,2004.503,975.042,2003.914,975.042z"/>
			</g>
			<g>
				<path style="fill:#3E6BAB;" d="M2011.844,969.257c-0.698,0-1.393-0.291-1.887-0.858l-43.343-49.794
					c-0.906-1.042-0.797-2.621,0.244-3.527c1.042-0.907,2.621-0.797,3.527,0.244l43.343,49.794c0.906,1.042,0.797,2.621-0.244,3.527
					C2013.011,969.055,2012.426,969.257,2011.844,969.257z"/>
			</g>
			<g>
				<path style="fill:#3E6BAB;" d="M2042.549,943.787c-0.688,0-1.373-0.282-1.866-0.836l-40.873-45.824
					c-0.92-1.03-0.829-2.61,0.201-3.529c1.031-0.921,2.612-0.828,3.529,0.201l40.873,45.824c0.92,1.03,0.829,2.61-0.201,3.529
					C2043.735,943.578,2043.141,943.787,2042.549,943.787z"/>
			</g>
			<g>
				<path style="fill:#3E6BAB;" d="M2046.977,936.929c-0.69,0-1.377-0.284-1.871-0.841l-40.778-45.971
					c-0.916-1.033-0.821-2.613,0.211-3.529c1.035-0.915,2.613-0.82,3.529,0.211l40.778,45.971c0.916,1.033,0.821,2.613-0.211,3.529
					C2048.158,936.721,2047.566,936.929,2046.977,936.929z"/>
			</g>
			<g>
				<path style="fill:#3E6BAB;" d="M2075.967,916.713c-0.704,0-1.403-0.296-1.897-0.871l-38.779-45.171
					c-0.899-1.048-0.779-2.626,0.268-3.525c1.048-0.9,2.627-0.778,3.525,0.268l38.779,45.171c0.899,1.048,0.779,2.626-0.268,3.525
					C2077.123,916.515,2076.543,916.713,2075.967,916.713z"/>
			</g>
			<g>
				<path style="fill:#3E6BAB;" d="M2080.55,909.609c-1.015,0-1.94-0.623-2.318-1.572c-1.75-2.904-22.784-27.182-35.758-41.945
					c-0.911-1.037-0.81-2.617,0.228-3.528c1.037-0.911,2.617-0.81,3.528,0.228c36.212,41.208,36.602,43.019,36.768,43.792
					c0.29,1.35-0.569,2.68-1.919,2.97C2080.901,909.591,2080.725,909.609,2080.55,909.609z"/>
			</g>
			<g>
				<path style="fill:#D54A41;" d="M1978.895,893.472c-0.324,0-0.654-0.053-0.978-0.165c-1.566-0.54-2.398-2.247-1.858-3.813
					l7.448-21.602l-10.567,1.738c-1.63,0.272-3.179-0.838-3.447-2.473c-0.27-1.635,0.838-3.179,2.473-3.447l15.53-2.555
					c1.052-0.173,2.1,0.219,2.78,1.025c0.682,0.808,0.888,1.914,0.543,2.912l-9.088,26.355
					C1981.302,892.691,1980.139,893.472,1978.895,893.472z"/>
			</g>
			<path style="fill:#F09959;" d="M2154.755,837.463c-39.887,15.967-81.22-1.366-59.887-3.366s38.667-16.667,38.667-16.667
				L2154.755,837.463z"/>
		</g>
	</g>
	<g>
		<rect x="386.973" y="222.333" style="fill:#FFFFFF;" width="1022.551" height="1463.807"/>
		<g>
			<path style="fill:#63ACC2;" d="M1414.524,1691.14H381.973V217.333h1032.552V1691.14z M391.973,1681.14h1012.552V227.333H391.973
				V1681.14z"/>
		</g>
		<path style="opacity:0.7;fill:#9EC8FF;" d="M1306.323,613.623H677.19c-6.729,0-12.233-5.505-12.233-12.233v-1.638
			c0-6.728,5.504-12.232,12.233-12.232h629.132c6.728,0,12.233,5.504,12.233,12.232v1.638
			C1318.556,608.119,1313.051,613.623,1306.323,613.623z"/>
		<path style="opacity:0.7;fill:#9EC8FF;" d="M1306.323,660.399H677.19c-6.729,0-12.233-5.504-12.233-12.232v-1.638
			c0-6.728,5.504-12.233,12.233-12.233h629.132c6.728,0,12.233,5.505,12.233,12.233v1.638
			C1318.556,654.895,1313.051,660.399,1306.323,660.399z"/>
		<path style="opacity:0.7;fill:#9EC8FF;" d="M1306.323,795.661H677.19c-6.729,0-12.233-5.505-12.233-12.233v-1.638
			c0-6.728,5.504-12.233,12.233-12.233h629.132c6.728,0,12.233,5.505,12.233,12.233v1.638
			C1318.556,790.156,1313.051,795.661,1306.323,795.661z"/>
		<path style="opacity:0.7;fill:#9EC8FF;" d="M1306.323,842.437H677.19c-6.729,0-12.233-5.505-12.233-12.232v-1.639
			c0-6.728,5.504-12.232,12.233-12.232h629.132c6.728,0,12.233,5.504,12.233,12.232v1.639
			C1318.556,836.932,1313.051,842.437,1306.323,842.437z"/>
		<path style="opacity:0.7;fill:#9EC8FF;" d="M1306.323,1009.93H677.19c-6.729,0-12.233-5.504-12.233-12.232v-1.638
			c0-6.728,5.504-12.232,12.233-12.232h629.132c6.728,0,12.233,5.504,12.233,12.232v1.638
			C1318.556,1004.426,1313.051,1009.93,1306.323,1009.93z"/>
		<path style="opacity:0.7;fill:#9EC8FF;" d="M1306.323,1056.706H677.19c-6.729,0-12.233-5.505-12.233-12.232v-1.639
			c0-6.728,5.504-12.232,12.233-12.232h629.132c6.728,0,12.233,5.505,12.233,12.232v1.639
			C1318.556,1051.201,1313.051,1056.706,1306.323,1056.706z"/>
		<path style="opacity:0.7;fill:#9EC8FF;" d="M1306.323,1177.245H677.19c-6.729,0-12.233-5.505-12.233-12.232v-1.639
			c0-6.728,5.504-12.232,12.233-12.232h629.132c6.728,0,12.233,5.505,12.233,12.232v1.639
			C1318.556,1171.74,1313.051,1177.245,1306.323,1177.245z"/>
		<path style="opacity:0.7;fill:#9EC8FF;" d="M1306.323,1224.021H677.19c-6.729,0-12.233-5.505-12.233-12.232v-1.639
			c0-6.728,5.504-12.232,12.233-12.232h629.132c6.728,0,12.233,5.505,12.233,12.232v1.639
			C1318.556,1218.517,1313.051,1224.021,1306.323,1224.021z"/>
		<g>
			<g style="opacity:0.8;">
				<path style="fill:#9EC8FF;" d="M543.117,675.279h-41.713c-16.797,0-30.463-13.666-30.463-30.463v-41.712
					c0-16.797,13.666-30.463,30.463-30.463h41.713c16.797,0,30.463,13.666,30.463,30.463v41.712
					C573.58,661.613,559.914,675.279,543.117,675.279z M501.404,586.64c-9.078,0-16.463,7.385-16.463,16.463v41.712
					c0,9.078,7.385,16.463,16.463,16.463h41.713c9.078,0,16.463-7.385,16.463-16.463v-41.712c0-9.078-7.385-16.463-16.463-16.463
					H501.404z"/>
			</g>
			<g style="opacity:0.8;">
				<path style="fill:#9EC8FF;" d="M543.117,852.558h-41.713c-16.797,0-30.463-13.666-30.463-30.463v-41.713
					c0-16.797,13.666-30.463,30.463-30.463h41.713c16.797,0,30.463,13.666,30.463,30.463v41.713
					C573.58,838.892,559.914,852.558,543.117,852.558z M501.404,763.919c-9.078,0-16.463,7.385-16.463,16.463v41.713
					c0,9.078,7.385,16.463,16.463,16.463h41.713c9.078,0,16.463-7.385,16.463-16.463v-41.713c0-9.078-7.385-16.463-16.463-16.463
					H501.404z"/>
			</g>
			<g>
				<path style="fill:#F37168;" d="M524.867,828.095c-0.097,0-0.193-0.002-0.29-0.007c-1.763-0.086-3.398-0.942-4.472-2.343
					l-29.98-39.106c-2.016-2.63-1.519-6.395,1.111-8.412c2.63-2.017,6.396-1.519,8.412,1.111l25.668,33.481l68.161-73.03
					c2.263-2.424,6.06-2.553,8.481-0.293c2.423,2.261,2.554,6.058,0.293,8.48l-72.997,78.211
					C528.116,827.407,526.526,828.095,524.867,828.095z"/>
			</g>
			<g>
				<path style="fill:#9EC8FF;" d="M543.117,1061.744h-41.713c-16.246,0-29.463-13.217-29.463-29.463v-41.713
					c0-16.246,13.217-29.463,29.463-29.463h41.713c16.246,0,29.463,13.217,29.463,29.463v41.713
					C572.58,1048.527,559.363,1061.744,543.117,1061.744z M501.404,973.106c-9.629,0-17.463,7.834-17.463,17.463v41.713
					c0,9.629,7.834,17.463,17.463,17.463h41.713c9.629,0,17.463-7.834,17.463-17.463v-41.713c0-9.629-7.834-17.463-17.463-17.463
					H501.404z"/>
			</g>
			<g style="opacity:0.8;">
				<path style="fill:#9EC8FF;" d="M543.117,1240.022h-41.713c-16.797,0-30.463-13.666-30.463-30.463v-41.713
					c0-16.797,13.666-30.463,30.463-30.463h41.713c16.797,0,30.463,13.666,30.463,30.463v41.713
					C573.58,1226.356,559.914,1240.022,543.117,1240.022z M501.404,1151.384c-9.078,0-16.463,7.385-16.463,16.463v41.713
					c0,9.078,7.385,16.463,16.463,16.463h41.713c9.078,0,16.463-7.385,16.463-16.463v-41.713c0-9.078-7.385-16.463-16.463-16.463
					H501.404z"/>
			</g>
		</g>
		<g style="opacity:0.7;">
			<path style="fill:#63ACC2;" d="M772.257,335.869L722.19,451.534h-26.438l-49.901-115.665h28.916l35.195,82.618l35.691-82.618
				H772.257z"/>
			<path style="fill:#63ACC2;" d="M812.325,445.751c-9.641-5.177-17.185-12.31-22.638-21.398
				c-5.452-9.088-8.179-19.304-8.179-30.651c0-11.344,2.727-21.563,8.179-30.651c5.453-9.088,12.997-16.219,22.638-21.398
				c9.638-5.176,20.461-7.766,32.469-7.766c12.005,0,22.803,2.59,32.386,7.766c9.584,5.179,17.128,12.31,22.638,21.398
				c5.507,9.088,8.262,19.307,8.262,30.651c0,11.347-2.755,21.563-8.262,30.651c-5.51,9.088-13.054,16.221-22.638,21.398
				c-9.583,5.179-20.381,7.766-32.386,7.766C832.786,453.517,821.963,450.93,812.325,445.751z M863.3,426.005
				c5.508-3.14,9.832-7.518,12.972-13.136c3.14-5.618,4.709-12.005,4.709-19.167c0-7.159-1.569-13.549-4.709-19.167
				c-3.14-5.618-7.464-9.997-12.972-13.136c-5.509-3.139-11.677-4.709-18.506-4.709c-6.831,0-12.999,1.57-18.507,4.709
				c-5.509,3.14-9.831,7.519-12.971,13.136c-3.14,5.618-4.709,12.008-4.709,19.167c0,7.162,1.569,13.549,4.709,19.167
				c3.14,5.618,7.462,9.997,12.971,13.136c5.508,3.139,11.676,4.709,18.507,4.709C851.623,430.714,857.791,429.145,863.3,426.005z"
				/>
			<path style="fill:#63ACC2;" d="M958.807,357.68h-37.013v-21.811h100.794v21.811h-37.014v93.854h-26.768V357.68z"/>
			<path style="fill:#63ACC2;" d="M1134.782,430.054v21.48h-89.558V335.869h87.409v21.481h-60.807v25.116h53.701v20.819h-53.701
				v26.769H1134.782z"/>
		</g>
	</g>
	<g>
		<path style="fill:#0F2D5C;" d="M1283.997,1657.217c0,0,8.13,31.391,35.786,39.32c27.656,7.931,54.62,23.318,15.761,23.791
			c-42.625,0.519-67.054-1.487-84.769-4.461s-6.11-34.199-3.295-49.068S1283.997,1657.217,1283.997,1657.217z"/>
		<path style="fill:#0F2D5C;" d="M1058.584,1631.706c0,0-5.923,62.704,9.154,68.089s32.307,18.307,10.769,18.307
			c-21.538,0-48.187,5.09-55.157-18.307c-8.502-28.538-27.728-33.352-20.873-47.877c6.855-14.525,27.57-41.505,27.57-41.505
			L1058.584,1631.706z"/>
		<path style="fill:#0E3A82;" d="M1346.771,977.646l-54.732,692.873c0,0-28.434,13.142-48.929,15.124
			s-62.883-332.041-59.289-385.448c3.594-53.406-37.036-223.006-27.625-277.976C1165.606,967.25,1346.771,977.646,1346.771,977.646z
			"/>
		<path style="fill:#0F2D5C;" d="M1237.252,981.313c3.859-0.518,7.749-0.979,11.644-1.39l94.558,36.589l-17.442,204.363
			c-45.317,99.598-99.541,193.604-126.778,254.376c-12.406-72.274-17.085-150.213-15.413-175.056
			c1.731-25.719-6.794-78.386-15.048-132.22L1237.252,981.313z"/>
		<path style="fill:#0E3A82;" d="M1319.782,1082.341c-53.065,235.88-261.793,565.096-261.569,565.096s-38.998-6.773-40.98-24.616
			c-1.983-17.843,22.386-237.284,75.449-288.929c53.063-51.644,56.686-296.813,56.686-296.813L1319.782,1082.341z"/>
		<path style="fill:#368DA8;" d="M1194.664,732.593c-59.689,60.03-97.972,163.257-98.491,188.8
			c-0.519,25.543,68.823,71.125,68.823,71.125L1194.664,732.593z"/>
		<polygon style="fill:#F09959;" points="1266.579,602.204 1245.564,706.779 1303.044,768.662 1310.688,641.85 		"/>
		<path style="fill:#63ACC2;" d="M1238.185,681.054c0,0-30.489,10.7-64.425,96.851c-33.936,86.151-45.566,328.44-45.566,328.44
			s65.207,55.37,158.558,55.341c59.492-0.019,77.584-13.381,77.584-13.381s5.947-230.093,0-302.316
			S1267.637,679.237,1238.185,681.054z"/>
		<path style="fill:#368DA8;" d="M1364.335,845.989c-5.947-72.223-96.698-166.752-126.15-164.935c0,0-12.646,4.444-30.712,30.612
			c30.47-14.829,68.443,11.028,103.955,94.734c17.765,41.873,36.616,102.121,55.441,115.262
			C1366.61,891.69,1365.867,864.596,1364.335,845.989z"/>
		<path style="fill:#E38540;" d="M1288.653,690.216c-17.077-19.896-23.414-50.289-25.764-69.649l3.32-16.523l4.276,1.672
			l40.202,36.135l-3.932,65.236C1301.149,703.093,1295.027,697.642,1288.653,690.216z"/>
		<path style="fill:#F09959;" d="M1279.711,625.247c6.598,31.125,35.263,48.323,59.054,43.279
			c23.792-5.043,28.999-35.197,22.401-66.322c-6.598-31.125-26.533-47.489-50.324-42.446
			C1287.051,564.801,1273.113,594.122,1279.711,625.247z"/>
		<path style="fill:#63ACC2;" d="M1247.319,654.487l-20.256,34.217l107.35,80.255c0,0-8.084-37.195-10.251-50.882
			C1321.995,704.389,1249.023,651.609,1247.319,654.487z"/>
		<path style="fill:#3A384D;" d="M1366.726,538.618c40.088,12.604,7.319,63.124-5.559,63.586
			c-12.878,0.461-17.579-11.536-28.155-8.769c-10.577,2.767-20.565-16.036-27.029-11.923c-6.464,4.113-2.351,42.306,0,48.77
			c2.35,6.463-8.227,7.051-8.227,7.051s-4.308-27.029-10.968-25.266c-6.66,1.763-11.602,20.565-21.176,25.266
			s-9.575,4.701-9.575,4.701s-5.876-40.789-14.689-48.599c-8.814-7.81-3.29-34.839,9.226-40.127
			c12.515-5.289,15.535-29.379,32.828-31.142c17.293-1.763,31.395,9.989,54.311,7.051S1355.513,535.093,1366.726,538.618z"/>
		<path style="fill:#F09959;" d="M1265.214,618.648c3.709,8.729,11.961,13.576,18.429,10.827c6.469-2.75,8.706-12.054,4.996-20.783
			c-3.709-8.729-11.961-13.576-18.43-10.827C1263.741,600.614,1261.504,609.919,1265.214,618.648z"/>
		<path style="fill:#368DA8;" d="M1216.245,745.04c0,0,110.614,123.019,150.439,161.076c0.54,35.426,0.265,76.707-0.257,113.395
			c-21.576-10.62-81.526-41.661-115.653-74.572C1208.63,904.296,1189.826,811.116,1216.245,745.04z"/>
		<path style="fill:#DBE5EB;" d="M1541.449,907.049c7.3-45.422,89.729-177.627,120.86-192.888
			c17.167-8.415,172.134,17.702,172.134,17.702s-175.796,152.601-198.381,234.395c-20.177,73.073-17.702,100.733-17.702,100.733
			l-71.007-51.9C1547.353,1015.091,1530.461,975.415,1541.449,907.049z"/>
		<path style="fill:#F09959;" d="M1521.932,906.048c0,0,26.457-32.758,37.007-29.605c10.55,3.152,14.539,3.662,23.791,3.152
			s9.913,12.865-3.305,36.907c-13.217,24.042-48.902,28.866-57.493,28.437C1513.34,944.511,1521.932,906.048,1521.932,906.048z"/>
		<path style="fill:#63ACC2;" d="M1228.598,718.076c-42.778,11.376-28.859,119.82-4.754,164.591
			c17.326,32.179,75.208,64.993,110.569,74.197c35.362,9.204,188.734-9.921,188.734-9.921s5.644-50.561-5.034-50.561
			c-10.678,0-137.315-2.933-171.343-33.691C1312.743,831.933,1280.256,704.338,1228.598,718.076z"/>
		<g>
			<path style="fill:#DBE5EB;" d="M1547.353,905.218c-11.397-7.325,14.982-49.377,14.982-49.377h30.388
				c0,0-9.772,11.512-24.114,23.12C1554.267,890.568,1547.353,905.218,1547.353,905.218z"/>
			<g>
				<path style="fill:#3E6BAB;" d="M1758.45,774.04c-0.155,0-0.312-0.014-0.469-0.044l-72.358-13.734
					c-1.356-0.257-2.248-1.566-1.99-2.922c0.258-1.357,1.576-2.247,2.922-1.99l72.358,13.734c1.356,0.258,2.248,1.565,1.99,2.922
					C1760.676,773.205,1759.627,774.04,1758.45,774.04z"/>
			</g>
			<g>
				<path style="fill:#3E6BAB;" d="M1722.268,813.412c-0.287,0-0.579-0.05-0.863-0.155l-57.212-21.059
					c-1.296-0.477-1.96-1.914-1.482-3.209c0.477-1.296,1.918-1.963,3.209-1.482l57.212,21.06c1.296,0.477,1.96,1.914,1.482,3.209
					C1724.241,812.785,1723.285,813.412,1722.268,813.412z"/>
			</g>
			<g>
				<path style="fill:#3E6BAB;" d="M1711.751,824.399c-0.284,0-0.572-0.049-0.854-0.151c-17.394-6.325-51.039-18.511-53.88-19.358
					c-1.323-0.394-2.076-1.786-1.682-3.109c0.394-1.323,1.783-2.079,3.109-1.682c3.69,1.1,52.102,18.701,54.161,19.45
					c1.298,0.472,1.967,1.906,1.495,3.204C1713.731,823.769,1712.772,824.399,1711.751,824.399z"/>
			</g>
			<g>
				<path style="fill:#3E6BAB;" d="M1670.548,872.733c-0.326,0-0.657-0.065-0.976-0.199c-17.939-7.611-45.781-19.166-48.956-19.802
					c-1.354-0.271-2.232-1.588-1.961-2.941c0.271-1.354,1.594-2.231,2.941-1.961c4.693,0.939,45.313,18.143,49.929,20.101
					c1.271,0.54,1.864,2.007,1.325,3.278C1672.446,872.161,1671.521,872.733,1670.548,872.733z"/>
			</g>
			<g>
				<path style="fill:#3E6BAB;" d="M1665.055,883.03c-0.321,0-0.647-0.063-0.963-0.194l-48.527-20.272
					c-1.273-0.532-1.875-1.996-1.343-3.27c0.531-1.274,1.994-1.877,3.271-1.343l48.527,20.273c1.273,0.532,1.875,1.996,1.343,3.271
					C1666.962,882.452,1666.033,883.03,1665.055,883.03z"/>
			</g>
			<g>
				<path style="fill:#3E6BAB;" d="M1769.743,762.137c-0.153,0-0.31-0.014-0.466-0.044l-76.078-14.344
					c-1.357-0.256-2.25-1.563-1.994-2.92c0.256-1.356,1.564-2.25,2.92-1.993l76.078,14.344c1.357,0.256,2.25,1.563,1.994,2.92
					C1771.971,761.3,1770.922,762.137,1769.743,762.137z"/>
			</g>
			<g>
				<path style="fill:#3E6BAB;" d="M1635.45,915.349c-0.317,0-0.641-0.061-0.952-0.189l-34.793-14.344
					c-1.276-0.526-1.885-1.988-1.358-3.265c0.527-1.276,1.987-1.883,3.265-1.358l34.793,14.344c1.276,0.526,1.885,1.988,1.358,3.265
					C1637.364,914.766,1636.433,915.349,1635.45,915.349z"/>
			</g>
			<g>
				<path style="fill:#3E6BAB;" d="M1628.734,930.304c-0.351,0-0.707-0.074-1.047-0.231l-32.352-14.955
					c-1.254-0.58-1.8-2.065-1.221-3.318c0.579-1.253,2.061-1.804,3.318-1.221l32.352,14.955c1.254,0.58,1.8,2.065,1.221,3.318
					C1630.583,929.766,1629.68,930.304,1628.734,930.304z"/>
			</g>
			<g>
				<path style="fill:#3E6BAB;" d="M1610.729,986.461c-0.343,0-0.689-0.071-1.021-0.22l-44.254-19.838
					c-1.26-0.564-1.823-2.044-1.259-3.304c0.565-1.262,2.047-1.821,3.304-1.259l44.254,19.838c1.26,0.565,1.823,2.044,1.259,3.304
					C1612.595,985.91,1611.683,986.461,1610.729,986.461z"/>
			</g>
			<g>
				<path style="fill:#3E6BAB;" d="M1604.014,999.89c-0.339,0-0.682-0.069-1.011-0.215c-18.329-8.115-40.368-17.915-41.272-18.518
					c-1.148-0.767-1.458-2.318-0.692-3.468c0.743-1.111,2.222-1.438,3.357-0.762c1.662,0.872,25.16,11.325,40.631,18.175
					c1.263,0.56,1.833,2.036,1.274,3.298C1605.888,999.334,1604.973,999.89,1604.014,999.89z"/>
			</g>
			<g>
				<path style="fill:#D54A41;" d="M1618.055,799.261c-0.623,0-1.242-0.194-1.765-0.574c-0.904-0.657-1.367-1.763-1.202-2.868
					l3.052-20.448c0.244-1.64,1.784-2.771,3.409-2.524c1.639,0.244,2.77,1.771,2.524,3.409l-2.202,14.762l39.714-19.722
					c1.483-0.737,3.284-0.132,4.021,1.353c0.737,1.483,0.132,3.284-1.353,4.021l-44.864,22.279
					C1618.967,799.157,1618.51,799.261,1618.055,799.261z"/>
			</g>
		</g>
	</g>
</g>
</svg>
